<?xml version="1.0" encoding="UTF-8" standalone="no"?>
<svg
   xmlns:dc="http://purl.org/dc/elements/1.1/"
   xmlns:cc="http://creativecommons.org/ns#"
   xmlns:rdf="http://www.w3.org/1999/02/22-rdf-syntax-ns#"
   xmlns:svg="http://www.w3.org/2000/svg"
   xmlns="http://www.w3.org/2000/svg"
   xmlns:sodipodi="http://sodipodi.sourceforge.net/DTD/sodipodi-0.dtd"
   xmlns:inkscape="http://www.inkscape.org/namespaces/inkscape"
   width="75"
   height="75"
   viewBox="0 0 19.84375 19.843751"
   version="1.1"
   id="svg8"
   inkscape:version="1.0.1 (3bc2e813f5, 2020-09-07)"
   sodipodi:docname="sono.svg">
  <defs
     id="defs2" />
  <sodipodi:namedview
     id="base"
     pagecolor="#ffffff"
     bordercolor="#666666"
     borderopacity="1.0"
     inkscape:pageopacity="0.0"
     inkscape:pageshadow="2"
     inkscape:zoom="3.959798"
     inkscape:cx="-13.109117"
     inkscape:cy="55.54178"
     inkscape:document-units="px"
     inkscape:current-layer="layer1"
     inkscape:document-rotation="0"
     showgrid="false"
     units="px"
     inkscape:window-width="1920"
     inkscape:window-height="1009"
     inkscape:window-x="1272"
     inkscape:window-y="-8"
     inkscape:window-maximized="1" />
  <metadata
     id="metadata5">
    <rdf:RDF>
      <cc:Work
         rdf:about="">
        <dc:format>image/svg+xml</dc:format>
        <dc:type
           rdf:resource="http://purl.org/dc/dcmitype/StillImage" />
        <dc:title></dc:title>
      </cc:Work>
    </rdf:RDF>
  </metadata>
  <g
     inkscape:label="Calque 1"
     inkscape:groupmode="layer"
     id="layer1">
    <path
       id="path847"
       style="fill:#000000;fill-opacity:1;stroke:none;stroke-width:0.356137px;stroke-linecap:butt;stroke-linejoin:miter;stroke-opacity:1"
       d="m 11.870851,1.1862313 c -0.03337,-2.635e-4 -0.07078,0.00742 -0.115755,0.024288 -0.179877,0.067453 -0.281637,0.478007 -0.281637,0.478007 0,0 -0.258318,-0.3881006 -0.528133,-0.3431315 -0.269814,0.044969 -0.494976,0.38809 -0.579293,0.6635254 -0.08432,0.2754354 -0.106453,0.467155 -0.106453,0.467155 0,0 -0.4105322,-0.1292863 -0.8433598,0.2754354 C 8.9833936,3.1562315 9.1409318,3.6840377 9.0622365,3.8470509 8.983538,4.0100636 8.8825077,4.1227185 8.7082531,4.235141 8.533994,4.3475638 8.3427635,4.4319958 8.101055,4.8423389 7.8593459,5.2526812 7.999642,5.7974884 7.9884004,5.9042896 7.9771572,6.0110916 7.9712096,6.1013245 7.7295014,6.2980642 7.4877923,6.4948036 7.2579808,6.6800056 7.1455577,7.0060313 7.0331352,7.3320567 7.0945249,7.8213271 7.1057668,7.9449921 7.1170057,8.068657 7.1843329,8.1527733 7.0943979,8.2483326 7.004461,8.3438906 6.4312526,8.8667308 6.464979,9.3108001 c 0.033726,0.4440698 0.3709734,0.6126075 0.3653523,0.680062 -0.00563,0.067454 -0.5505228,0.7138199 -0.3818888,1.0960569 0.1686338,0.382237 0.6458924,0.241963 0.6402711,0.298173 -0.00563,0.05621 -0.3430048,0.534124 -0.056327,0.607198 0.2866779,0.07307 0.9839404,-0.20293 1.7203084,-0.877465 0.7363677,-0.674536 1.2030703,-1.3093236 1.298628,-1.432988 0.09556,-0.1236655 0.07864,-0.1232951 0.224793,-0.1963704 0.14615,-0.073071 0.921748,-0.5398394 1.871721,-0.4780071 0.949971,0.061832 2.484581,0.5735344 2.574519,0.6128825 0.08994,0.039349 0.29791,0.1120002 0.320394,0.1457277 0.02249,0.033722 0.07338,1.5177373 0.07338,1.5177373 0,0 0.0902,0.06775 -0.02222,0.118338 -0.112421,0.05058 -0.174666,-0.0062 -0.174666,-0.0062 0,0 -0.0282,-0.01091 -0.146245,-0.01654 -0.118047,-0.0056 -0.151412,0.05633 -0.151412,0.05633 l -0.07855,0.162781 -0.618567,0.06718 c 0,0 -0.08423,0.03453 -0.08423,0.163815 0,0.129286 0.02238,0.168075 0.129191,0.179317 0.106803,0.01131 0.578776,0.07906 0.578776,0.07906 l 0.04444,0.152445 c -0.413628,-0.04263 -0.951891,-0.07322 -1.681551,-0.077 -3.0684991,-0.0159 -4.0311332,0.135223 -4.1821729,0.453203 -0.00146,0.0031 -0.00111,0.01072 -0.00207,0.01499 -0.1725137,0.0077 -1.7223754,0.119373 -1.7223754,0.119373 l -0.017053,0.06201 c 0,0 -0.1798129,-1.1e-5 -0.2697509,0.04496 -0.089937,0.04497 -0.1912027,0.157096 -0.1912027,0.157096 l -0.00568,0.03979 0.489376,0.08423 v 0.20774 l 0.1968871,0.06201 c 0,0 0.056211,0.730484 0,0.848527 -0.056211,0.118047 -0.1352656,0.416229 -0.1240235,0.52865 0.01124,0.112422 0.1127181,0.309268 0.1183391,0.376722 0.00563,0.06745 0.022221,0.657324 0.022221,0.657324 l -0.2020546,0.0677 -0.1240235,0.101286 c 0,0 -0.3987839,0.123342 -0.5224489,0.247013 -0.1236649,0.12366 -0.1746662,0.241846 -0.1746662,0.241846 l -0.230477,0.157613 0.00568,0.235644 0.427364,0.264584 0.3260783,-0.01705 3.5527541,1.916679 0.01654,0.286804 0.847493,0.42478 1.184424,-0.373104 -0.01602,-0.254765 5.580538,-1.74873 0.270784,0.09508 0.699699,-0.214457 V 16.92532 l -0.230994,-0.143661 c 0,0 -0.08747,-0.166571 -0.310058,-0.325561 C 18.101618,16.297107 17.871,16.233889 17.871,16.233889 l -0.150895,-0.151929 -0.198954,-0.0078 -0.0078,-0.66766 c 0,0 0.150895,-0.341635 0.150895,-0.484725 0,-0.143092 -0.134876,-0.349626 -0.134876,-0.524515 v -0.842843 l 0.238229,-0.05581 0.01602,-0.28577 0.556039,-0.04806 c 0,0 -0.126849,-0.246067 -0.63562,-0.325562 -0.508768,-0.0795 -1.843816,-0.191203 -1.843816,-0.191203 0,0 0.01258,-0.07023 -0.142627,-0.157096 l -0.02842,-0.206706 c 0,0 0.157349,-0.04487 0.179834,-0.129191 0.02249,-0.08432 0.01705,-1.551326 0.01705,-1.551326 0,0 -0.112517,-0.08992 -0.146245,-0.08992 -0.03373,0 -0.07286,-0.06718 -0.07286,-0.06718 l -0.02119,0.182935 c -0.0039,-0.490698 -0.01809,-0.9585979 -0.01809,-0.9585982 0,0 0.0057,-0.2589615 -0.511596,-0.5400186 C 14.599,8.8499652 12.727319,7.5683235 12.468747,6.7926075 12.210175,6.0168912 12.075353,5.5498315 12.109079,5.3699553 c 0.03372,-0.1798762 0.151465,-0.5449014 0.202055,-0.6573242 0.05059,-0.1124228 0.04457,-0.2977608 0.05581,-0.3989419 0.01124,-0.1011804 0.129845,-1.652644 0.09612,-1.7931724 -0.03372,-0.1405283 0.01708,-0.067665 -0.07286,-0.2025716 -0.08994,-0.134907 -0.163018,-0.7918409 -0.27544,-0.9436117 -0.08432,-0.1138278 -0.143787,-0.1873117 -0.243913,-0.1881022 z m 3.667476,10.6071047 c 0.0058,0.07124 0.0052,0.149037 -0.03411,0.165365 -0.06745,0.02811 -0.270268,0.06201 -0.270268,0.06201 l -0.02946,0.305925 c -0.06562,-0.01323 -0.159862,-0.02383 -0.239261,-0.03617 0.03404,-0.06094 0.06417,-0.128798 0.06666,-0.191202 0.0057,-0.140529 -0.01705,-0.208257 -0.01705,-0.208256 0,0 0.355439,0.100557 0.523482,-0.09767 z" />
    <path
       style="fill:#000000;fill-opacity:1;stroke:none;stroke-width:0.244977px;stroke-linecap:butt;stroke-linejoin:miter;stroke-opacity:1"
       d="M 8.5447989,2.7084334 7.4035473,1.2907352 7.3336054,1.7631811 6.5310501,0.73562013 6.5062102,1.0573179 5.9116248,0.37949088 6.4773321,1.4216842 6.6403646,1.1207384 7.4304999,2.3091486 7.5162892,1.6988714 Z"
       id="path857"
       sodipodi:nodetypes="ccccccccccc" />
    <path
       style="fill:#000000;fill-opacity:1;stroke:none;stroke-width:0.279024px;stroke-linecap:butt;stroke-linejoin:miter;stroke-opacity:1"
       d="M 6.0263172,9.2348628 3.9526943,8.8958632 4.2977391,9.3516216 2.8136872,9.0871568 3.0661431,9.3801456 2.0371063,9.2553163 3.3515124,9.7125618 3.2227619,9.3320457 4.8330421,9.7430052 4.3838321,9.1577531 Z"
       id="path857-1"
       sodipodi:nodetypes="ccccccccccc" />
    <path
       style="fill:#000000;fill-opacity:1;stroke:none;stroke-width:0.356137px;stroke-linecap:butt;stroke-linejoin:miter;stroke-opacity:1"
       d="M 5.5728735,5.3178417 3.303459,3.8888492 3.482634,4.5961289 1.8693154,3.5477391 2.0205225,4.0176468 0.87275774,3.3595312 2.1908323,4.5502627 2.2285553,4.0389262 3.9174776,5.32227 3.6801889,4.4109877 Z"
       id="path857-1-3"
       sodipodi:nodetypes="ccccccccccc"
       inkscape:transform-center-x="0.033564438"
       inkscape:transform-center-y="0.19129898" />
  </g>
</svg>
