<?xml version="1.0" encoding="UTF-8" standalone="no"?>
<svg
   xmlns:dc="http://purl.org/dc/elements/1.1/"
   xmlns:cc="http://creativecommons.org/ns#"
   xmlns:rdf="http://www.w3.org/1999/02/22-rdf-syntax-ns#"
   xmlns:svg="http://www.w3.org/2000/svg"
   xmlns="http://www.w3.org/2000/svg"
   xmlns:sodipodi="http://sodipodi.sourceforge.net/DTD/sodipodi-0.dtd"
   xmlns:inkscape="http://www.inkscape.org/namespaces/inkscape"
   width="75"
   height="75"
   viewBox="0 0 19.84375 19.843751"
   version="1.1"
   id="svg8"
   inkscape:version="1.0.1 (3bc2e813f5, 2020-09-07)"
   sodipodi:docname="sono-d.svg">
  <defs
     id="defs2" />
  <sodipodi:namedview
     id="base"
     pagecolor="#ffffff"
     bordercolor="#666666"
     borderopacity="1.0"
     inkscape:pageopacity="0.0"
     inkscape:pageshadow="2"
     inkscape:zoom="2.8"
     inkscape:cx="-38.468684"
     inkscape:cy="77.255368"
     inkscape:document-units="px"
     inkscape:current-layer="layer1"
     inkscape:document-rotation="0"
     showgrid="false"
     units="px"
     inkscape:window-width="1920"
     inkscape:window-height="1009"
     inkscape:window-x="1272"
     inkscape:window-y="-8"
     inkscape:window-maximized="1" />
  <metadata
     id="metadata5">
    <rdf:RDF>
      <cc:Work
         rdf:about="">
        <dc:format>image/svg+xml</dc:format>
        <dc:type
           rdf:resource="http://purl.org/dc/dcmitype/StillImage" />
        <dc:title></dc:title>
      </cc:Work>
    </rdf:RDF>
  </metadata>
  <g
     inkscape:label="Calque 1"
     inkscape:groupmode="layer"
     id="layer1">
    <path
       id="path847"
       style="fill:#000000;fill-opacity:1;stroke:none;stroke-width:1.34603px;stroke-linecap:butt;stroke-linejoin:miter;stroke-opacity:1"
       d="M 44.865234 4.4824219 C 44.739112 4.481426 44.597719 4.5104657 44.427734 4.5742188 C 43.747884 4.8291592 43.363281 6.3808594 43.363281 6.3808594 C 43.363281 6.3808594 42.386961 4.9140224 41.367188 5.0839844 C 40.347418 5.2539459 39.496413 6.5507812 39.177734 7.5917969 C 38.859045 8.6328125 38.775391 9.3574219 38.775391 9.3574219 C 38.775391 9.3574219 37.223774 8.8687807 35.587891 10.398438 C 33.952011 11.928091 34.547431 13.92295 34.25 14.539062 C 33.952557 15.155173 33.570709 15.580955 32.912109 16.005859 C 32.253492 16.430764 31.530731 16.749878 30.617188 18.300781 C 29.703641 19.851681 30.233894 21.910795 30.191406 22.314453 C 30.148912 22.718114 30.126433 23.059151 29.212891 23.802734 C 28.299344 24.546316 27.430766 25.246293 27.005859 26.478516 C 26.580955 27.710738 26.81298 29.559948 26.855469 30.027344 C 26.897946 30.494739 27.152412 30.812659 26.8125 31.173828 C 26.472581 31.534992 24.306124 33.511081 24.433594 35.189453 C 24.561062 36.867827 25.835698 37.504819 25.814453 37.759766 C 25.793174 38.01471 23.733737 40.457669 24.371094 41.902344 C 25.00845 43.347019 26.812261 42.81685 26.791016 43.029297 C 26.769737 43.241744 25.494618 45.048034 26.578125 45.324219 C 27.661632 45.600389 30.296955 44.557236 33.080078 42.007812 C 35.8632 39.458385 37.627118 37.05919 37.988281 36.591797 C 38.349453 36.1244 38.285501 36.125799 38.837891 35.849609 C 39.390269 35.573436 42.32166 33.809272 45.912109 34.042969 C 48.055025 34.182448 50.874425 34.909751 52.960938 35.519531 L 55.177734 33.289062 C 52.31907 31.375643 47.885882 27.95452 47.125 25.671875 C 46.14772 22.740034 45.638157 20.974769 45.765625 20.294922 C 45.893071 19.615075 46.338091 18.235452 46.529297 17.810547 C 46.720503 17.385642 46.697752 16.685151 46.740234 16.302734 C 46.782716 15.92032 47.232933 10.056522 47.105469 9.5253906 C 46.978023 8.9942601 47.170009 9.2696488 46.830078 8.7597656 C 46.490147 8.2498809 46.212011 5.7669813 45.787109 5.1933594 C 45.46842 4.7631441 45.243663 4.4854096 44.865234 4.4824219 z M 58.310547 35.330078 L 56.785156 36.865234 C 56.805478 36.880082 56.84529 36.897817 56.853516 36.910156 C 56.938517 37.037609 57.130859 42.646484 57.130859 42.646484 C 57.130859 42.646484 57.471769 42.902551 57.046875 43.09375 C 56.621977 43.284918 56.386719 43.070313 56.386719 43.070312 C 56.386719 43.070312 56.280139 43.029091 55.833984 43.007812 C 55.387822 42.986647 55.261719 43.220703 55.261719 43.220703 L 54.964844 43.835938 L 52.626953 44.089844 C 52.626953 44.089844 52.308594 44.222301 52.308594 44.710938 C 52.308594 45.199577 52.39318 45.344229 52.796875 45.386719 C 53.20054 45.429465 54.984375 45.685547 54.984375 45.685547 L 55.152344 46.261719 C 53.589025 46.100597 51.554645 45.98499 48.796875 45.970703 C 48.408871 45.968693 48.100838 45.973254 47.730469 45.972656 L 27.828125 65.994141 L 38.859375 71.945312 L 38.921875 73.029297 L 42.125 74.632812 L 46.601562 73.222656 L 46.541016 72.259766 L 67.632812 65.650391 L 68.65625 66.009766 L 71.300781 65.199219 L 71.300781 63.96875 L 70.427734 63.425781 C 70.427734 63.425781 70.097137 62.79622 69.255859 62.195312 C 68.414593 61.594402 67.542969 61.355469 67.542969 61.355469 L 66.972656 60.78125 L 66.220703 60.751953 L 66.191406 58.228516 C 66.191406 58.228516 66.761719 56.937297 66.761719 56.396484 C 66.761719 55.855664 66.251953 55.07506 66.251953 54.414062 L 66.251953 51.228516 L 67.152344 51.017578 L 67.212891 49.9375 L 69.314453 49.755859 C 69.314453 49.755859 68.835023 48.825844 66.912109 48.525391 C 64.989207 48.224918 59.943359 47.802734 59.943359 47.802734 C 59.943359 47.802734 59.990906 47.537297 59.404297 47.208984 L 59.296875 46.427734 C 59.296875 46.427734 59.89158 46.258147 59.976562 45.939453 C 60.061564 45.620763 60.041016 40.076172 60.041016 40.076172 C 60.041016 40.076172 59.615757 39.736328 59.488281 39.736328 C 59.360798 39.736328 59.212891 39.482422 59.212891 39.482422 L 59.132812 40.173828 C 59.118072 38.319222 59.064453 36.550782 59.064453 36.550781 C 59.064453 36.550781 59.067851 36.026298 58.310547 35.330078 z M 58.726562 44.574219 C 58.748308 44.842921 58.745858 45.135708 58.597656 45.197266 C 58.342727 45.303508 57.576172 45.431641 57.576172 45.431641 L 57.464844 46.587891 C 57.216831 46.537887 56.860638 46.499764 56.560547 46.453125 C 56.689202 46.222801 56.803089 45.966326 56.8125 45.730469 C 56.834043 45.199336 56.748047 44.943356 56.748047 44.943359 C 56.748047 44.943359 58.091439 45.323423 58.726562 44.574219 z M 42.515625 46.025391 C 35.864484 46.188996 33.440022 46.736667 32.990234 47.683594 C 32.984716 47.69531 32.98605 47.724096 32.982422 47.740234 C 32.330402 47.769337 26.472656 48.191406 26.472656 48.191406 L 26.408203 48.425781 C 26.408203 48.425781 25.728595 48.425734 25.388672 48.595703 C 25.048753 48.765668 24.666016 49.189453 24.666016 49.189453 L 24.646484 49.339844 L 26.496094 49.658203 L 26.496094 50.443359 L 27.240234 50.677734 C 27.240234 50.677734 27.452685 53.438619 27.240234 53.884766 C 27.027783 54.330928 26.728995 55.457914 26.771484 55.882812 C 26.813966 56.307715 27.197505 57.051696 27.21875 57.306641 C 27.240029 57.56157 27.302734 59.791016 27.302734 59.791016 L 26.539062 60.046875 L 26.070312 60.429688 C 26.070312 60.429688 24.563098 60.895863 24.095703 61.363281 C 23.628308 61.830658 23.435547 62.277344 23.435547 62.277344 L 22.564453 62.873047 L 22.583984 63.763672 L 24.005859 64.644531 L 42.515625 46.025391 z "
       transform="scale(0.26458334)" />
    <rect
       style="fill:#000000;fill-opacity:1;stroke:none;stroke-width:2.46416;stroke-linecap:square;stroke-linejoin:bevel;paint-order:stroke markers fill;stop-color:#000000"
       id="rect893"
       width="18.427883"
       height="0.3173826"
       x="-9.6075382"
       y="16.245546"
       ry="0"
       transform="rotate(-45.169621)" />
  </g>
</svg>
